<?xml version="1.0" standalone="no"?><!DOCTYPE svg PUBLIC "-//W3C//DTD SVG 1.1//EN" "http://www.w3.org/Graphics/SVG/1.1/DTD/svg11.dtd"><svg t="1677831756987" class="icon" viewBox="0 0 1024 1024" version="1.1" xmlns="http://www.w3.org/2000/svg" p-id="33527" xmlns:xlink="http://www.w3.org/1999/xlink" width="200" height="200"><path d="M472 512m-448 0a448 448 0 1 0 896 0 448 448 0 1 0-896 0Z" fill="#BDBDBD" p-id="33528"></path><path d="M472 56C220.56 56 16 260.56 16 512s204.56 456 456 456S928 763.44 928 512 723.44 56 472 56z m0 896C229.376 952 32 754.624 32 512S229.376 72 472 72 912 269.376 912 512 714.624 952 472 952z" fill="#37474F" p-id="33529"></path><path d="M552 512m-448 0a448 448 0 1 0 896 0 448 448 0 1 0-896 0Z" fill="#EEEEEE" p-id="33530"></path><path d="M552 56C300.56 56 96 260.56 96 512s204.56 456 456 456S1008 763.44 1008 512 803.44 56 552 56z m0 896C309.376 952 112 754.624 112 512S309.376 72 552 72 992 269.376 992 512 794.624 952 552 952z" fill="#37474F" p-id="33531"></path><path d="M593.072 256h-81.856L312.144 592h480z" fill="#26C6DA" p-id="33532"></path><path d="M799.024 587.92l-199.072-336a7.984 7.984 0 0 0-6.88-3.92h-81.856a7.984 7.984 0 0 0-6.88 3.92l-199.072 336a8 8 0 0 0 6.88 12.08h480a8 8 0 0 0 6.88-12.08zM326.192 584l189.6-320h72.736l189.6 320H326.192z" fill="#37474F" p-id="33533"></path><path d="M552 88C318.208 88 128 278.208 128 512a8 8 0 0 0 16 0C144 287.024 327.024 104 552 104a8 8 0 0 0 0-16z" fill="#FAFAFA" p-id="33534"></path><path d="M536.192 281.12a8 8 0 0 0-10.96 2.8l-161.152 272a8 8 0 0 0 13.76 8.16l161.152-272a7.984 7.984 0 0 0-2.8-10.96z" fill="#80DEEA" p-id="33535"></path><path d="M552 64c-32.912 0-64.96 3.648-95.856 10.384V240a16 16 0 0 0 16 16h160a16 16 0 0 0 16-16V74.448A449.856 449.856 0 0 0 552 64z" fill="#78909C" p-id="33536"></path><path d="M649.856 66.64a457.52 457.52 0 0 0-195.408-0.064 8 8 0 0 0-6.304 7.808V240c0 13.232 10.768 24 24 24h160c13.232 0 24-10.768 24-24V74.448a7.984 7.984 0 0 0-6.288-7.808zM640.144 240a8 8 0 0 1-8 8h-160a8 8 0 0 1-8-8V80.88a441.056 441.056 0 0 1 176 0.048V240z" fill="#37474F" p-id="33537"></path><path d="M648.144 200h-192a8 8 0 0 0 0 16h192a8 8 0 0 0 0-16z" fill="#37474F" p-id="33538"></path><path d="M998.736 480.064C925.376 480.832 924.848 544 850.592 544c-74.704 0-74.704-64-149.408-64-74.656 0-74.656 64-149.296 64-74.672 0-74.672-64-149.344-64-74.64 0-74.64 64-149.296 64-74.176 0-74.704-63.168-148-63.936-0.464 6.688-0.784 13.408-0.96 20.16l0.528 37.984C118.4 773.424 313.376 960 552 960c247.424 0 448-200.576 448-448 0-10.752-0.512-21.376-1.264-31.936z" fill="#26C6DA" p-id="33539"></path><path d="M742.432 488.624c-11.056-5.184-24.144-8.624-41.232-8.624-74.656 0-74.656 64-149.296 64-74.672 0-74.672-64-149.344-64-16.96 0-29.968 3.408-40.976 8.512-0.944 7.712-1.584 15.52-1.584 23.488 0 106.032 85.968 192 192 192s192-85.968 192-192c0-7.936-0.624-15.696-1.568-23.376z" fill="#0097A7" p-id="33540"></path><path d="M1006.72 479.504a8 8 0 0 0-7.984-7.44h-0.08c-39.36 0.4-59.28 17.424-78.528 33.888-18.064 15.456-35.136 30.048-69.536 30.048s-51.44-14.608-69.504-30.08c-19.472-16.672-39.6-33.92-79.904-33.92-40.288 0-60.4 17.248-79.856 33.936-18.032 15.456-35.072 30.064-69.44 30.064-34.368 0-51.424-14.608-69.472-30.064-19.456-16.672-39.584-33.936-79.888-33.936-40.288 0-60.4 17.248-79.84 33.92-18.032 15.472-35.072 30.08-69.44 30.08-34.352 0-51.408-14.592-69.456-30.048-19.232-16.448-39.12-33.472-78.448-33.888-4.992 0.096-7.776 3.216-8.064 7.44-0.48 6.8-0.8 13.648-0.992 20.848l0.544 38.32C110.736 779.408 310.672 968 552 968 803.44 968 1008 763.44 1008 512c0-9.76-0.4-20.08-1.28-32.496zM552 952c-232.864 0-425.776-181.968-439.184-413.904l-0.528-37.664c0.096-4.016 0.256-8.032 0.464-12.032 28.576 2.288 44.192 15.632 60.624 29.696 19.472 16.672 39.6 33.888 79.872 33.888 40.288 0 60.4-17.248 79.856-33.936 18.032-15.456 35.072-30.064 69.424-30.064 34.384 0 51.424 14.608 69.472 30.08 19.456 16.672 39.584 33.92 79.872 33.92s60.4-17.248 79.856-33.936c18.032-15.456 35.072-30.064 69.44-30.064 34.384 0 51.44 14.608 69.504 30.08 19.472 16.672 39.6 33.92 79.904 33.92 40.304 0 60.448-17.232 79.936-33.888 16.464-14.08 32.096-27.44 60.72-29.712 0.528 8.688 0.768 16.336 0.768 23.616 0 242.624-197.376 440-440 440z" fill="#37474F" p-id="33541"></path><path d="M968 504a8 8 0 0 0-8 8c0 224.976-183.024 408-408 408a8 8 0 0 0 0 16C785.792 936 976 745.792 976 512a8 8 0 0 0-8-8z" fill="#0097A7" p-id="33542"></path><path d="M504.144 816m-32 0a32 32 0 1 0 64 0 32 32 0 1 0-64 0Z" fill="#26C6DA" p-id="33543"></path><path d="M504.144 776c-22.048 0-40 17.952-40 40s17.952 40 40 40 40-17.952 40-40-17.936-40-40-40z m0 64c-13.232 0-24-10.768-24-24s10.768-24 24-24 24 10.768 24 24-10.768 24-24 24z" fill="#37474F" p-id="33544"></path><path d="M824.144 640m-24 0a24 24 0 1 0 48 0 24 24 0 1 0-48 0Z" fill="#26C6DA" p-id="33545"></path><path d="M824.144 608c-17.648 0-32 14.352-32 32s14.352 32 32 32 32-14.352 32-32-14.352-32-32-32z m0 48c-8.816 0-16-7.184-16-16s7.184-16 16-16 16 7.184 16 16-7.168 16-16 16z" fill="#37474F" p-id="33546"></path><path d="M296.144 696m-24 0a24 24 0 1 0 48 0 24 24 0 1 0-48 0Z" fill="#26C6DA" p-id="33547"></path><path d="M296.144 664c-17.648 0-32 14.352-32 32s14.352 32 32 32 32-14.352 32-32-14.352-32-32-32z m0 48c-8.816 0-16-7.184-16-16s7.184-16 16-16 16 7.184 16 16-7.168 16-16 16z" fill="#37474F" p-id="33548"></path><path d="M488.144 92.96a8 8 0 0 0-8 8V176a8 8 0 0 0 16 0V100.96c0-4.432-3.568-8-8-8z" fill="#B0BEC5" p-id="33549"></path><path d="M616.144 93.008a8 8 0 0 0-8 8V176a8 8 0 0 0 16 0V101.008a8 8 0 0 0-8-8z" fill="#455A64" p-id="33550"></path></svg>